<svg width="150" height="150" viewBox="0 0 150 150" fill="none" xmlns="http://www.w3.org/2000/svg">
<path d="M76.3229 113.734L121.813 101.924L121.496 42.8112L76.2854 52.2904L30.7646 41.6758V93.5633C30.7128 95.8791 31.4276 98.1471 32.7978 100.015C34.1681 101.882 36.1171 103.245 38.3417 103.89L76.25 113.734V60.9049" fill="#92D3F5"/>
<path d="M76.3229 113.733L118.358 102.821C119.347 102.564 120.223 101.986 120.848 101.177C121.473 100.369 121.813 99.3759 121.812 98.354V47.4874C121.812 46.7923 121.655 46.1062 121.353 45.4804C121.051 44.8545 120.611 44.3051 120.066 43.873C119.522 43.4409 118.887 43.1374 118.209 42.9851C117.531 42.8329 116.827 42.8358 116.15 42.9936L76.2854 52.2915" fill="#61B2E4"/>
<path d="M76.2876 91.0648L75.7459 112.769L64.5939 111.246L31.4084 68.8294V42.8086L37.5647 43.3919L76.2876 91.0648Z" fill="white"/>
<path d="M30.7646 41.6751L76.6834 29.8105L120.727 42.873" fill="#92D3F5"/>
<path d="M119.579 42.1966L75.9396 52.8508L30.7188 41.3945" fill="#92D3F5"/>
<path d="M76.2521 60.9036V108.079C76.2518 108.747 76.0986 109.406 75.8043 110.005C75.5099 110.605 75.0822 111.129 74.5538 111.537C74.0255 111.946 73.4106 112.228 72.7563 112.363C72.102 112.497 71.4257 112.48 70.7791 112.312M70.7791 112.312L68.3958 111.693L68.0541 111.604L37.8146 103.754C35.7438 103.154 33.9296 101.886 32.6545 100.148C31.3793 98.4096 30.7149 96.2984 30.7646 94.1432V47.1848C30.7647 46.5261 30.9135 45.8758 31.2001 45.2826C31.4866 44.6894 31.9034 44.1686 32.4194 43.759C32.9353 43.3494 33.5371 43.0616 34.1798 42.9171C34.8225 42.7726 35.4896 42.7751 36.1312 42.9244L73.05 51.5348C75.1777 52.0307 77.391 52.0307 79.5187 51.5348L116.446 42.9244C117.087 42.7751 117.754 42.7726 118.397 42.9171C119.04 43.0616 119.642 43.3494 120.158 43.759C120.674 44.1686 121.09 44.6894 121.377 45.2826C121.663 45.8758 121.812 46.5261 121.812 47.1848V98.539C121.812 99.5076 121.491 100.449 120.898 101.215C120.305 101.981 119.475 102.529 118.537 102.772L77.7583 113.36C76.8146 113.602 75.8272 113.621 74.875 113.414L70.7791 112.312Z" stroke="#220731" stroke-width="3" stroke-linecap="round" stroke-linejoin="round"/>
<path d="M30.7188 50.8544L30.7542 43.7169C30.7565 43.1316 30.9529 42.5635 31.3125 42.1017C31.6721 41.6399 32.1748 41.3104 32.7417 41.1648L72.5625 30.8752C75.256 30.1803 78.0909 30.259 80.7417 31.1023L119.338 41.5461C120.048 41.739 120.675 42.1603 121.122 42.745C121.57 43.3297 121.812 44.0453 121.813 44.7815V50.3356" stroke="#220731" stroke-width="3" stroke-linecap="round" stroke-linejoin="round"/>
</svg>
