<svg aria-hidden="true" style="position: absolute; width: 0; height: 0; overflow: hidden;" version="1.1" xmlns="http://www.w3.org/2000/svg" xmlns:xlink="http://www.w3.org/1999/xlink">
<defs>
<symbol id="arrow" viewBox="0 0 32 32">
      <path d="M16 .5C24.56.5 31.5 7.44 31.5 16S24.56 31.5 16 31.5C7.44 31.5.5 24.56.5 16S7.44.5 16 .5z"/>
      <path d="m20.601 13 .899.892-4.899 4.86a.854.854 0 0 1-1.2 0l-4.902-4.86.899-.892 4.601 4.562 4.601-4.563z"/>
    </symbol>
<symbol id="icon-menu" viewBox="0 0 32 32">
<path fill="#220731" style="fill: var(--color1, #220731)" d="M4 10.667v-1.333h22.667v1.333h-22.667zM26.667 16v1.333h-22.667v-1.333h22.667zM4 22.667h22.667v1.333h-22.667v-1.333z"></path>
</symbol>
<symbol id="icon-star" viewBox="0 0 34 32">
<path fill="#fbbc04" style="fill: var(--color2, #fbbc04)" d="M16.842 0l3.781 11.638h12.237l-9.9 7.192 3.781 11.638-9.9-7.192-9.9 7.192 3.781-11.638-9.9-7.192h12.236l3.781-11.638z"></path>
</symbol>
</defs>
</svg>
